<?xml version="1.0" encoding="UTF-8" standalone="no"?>
<!DOCTYPE svg PUBLIC "-//W3C//DTD SVG 1.1//EN" "http://www.w3.org/Graphics/SVG/1.1/DTD/svg11.dtd">
<svg version="1.1" xmlns="http://www.w3.org/2000/svg" xmlns:xlink="http://www.w3.org/1999/xlink" preserveAspectRatio="xMidYMid meet" viewBox="0 0 89 83" width="89" height="83"><defs><path d="M-42.81 7.69C-46.58 0.99 -53.67 -3.16 -61.36 -3.16C-73.12 -3.16 -82.66 7.75 -82.66 19.51C-82.66 49.06 -42.81 69.67 -42.81 69.67C-42.81 69.67 -2.95 49.06 -2.95 19.51C-2.95 7.75 -12.49 -3.16 -24.26 -3.16C-31.95 -3.16 -39.04 0.99 -42.81 7.69Z" id="auqIfLZYL"></path><path d="M-58.46 -2.96C-59.42 -3.1 -60.39 -3.16 -61.36 -3.16C-73.12 -3.16 -82.66 7.75 -82.66 19.51C-82.66 49.06 -42.81 69.67 -42.81 69.67C-42.81 69.67 -41.78 69.14 -40.06 68.13C-49.06 62.83 -77.16 44.33 -77.16 19.51C-77.16 8.63 -69 -1.51 -58.46 -2.96Z" id="cdfbEmeN0"></path><path d="M45 16.49C41.23 9.79 34.14 5.64 26.45 5.64C14.68 5.64 5.15 16.55 5.15 28.31C5.15 57.86 45 78.47 45 78.47C45 78.47 84.85 57.86 84.85 28.31C84.85 16.55 75.32 5.64 63.55 5.64C55.86 5.64 48.77 9.79 45 16.49Z" id="b3JDfS2jdt"></path></defs><g><g><g><use xlink:href="#auqIfLZYL" opacity="1" fill="#ff6243" fill-opacity="1"></use><g><use xlink:href="#auqIfLZYL" opacity="1" fill-opacity="0" stroke="#000000" stroke-width="1" stroke-opacity="0"></use></g></g><g><use xlink:href="#cdfbEmeN0" opacity="1" fill="#ff5023" fill-opacity="1"></use><g><use xlink:href="#cdfbEmeN0" opacity="1" fill-opacity="0" stroke="#000000" stroke-width="1" stroke-opacity="0"></use></g></g><g><g><filter id="shadow195962" x="-3.85" y="-3.36" width="97.71" height="90.84" filterUnits="userSpaceOnUse" primitiveUnits="userSpaceOnUse"><feFlood></feFlood><feComposite in2="SourceAlpha" operator="in"></feComposite><feGaussianBlur stdDeviation="1"></feGaussianBlur><feOffset dx="0" dy="0" result="afterOffset"></feOffset><feFlood flood-color="#ff5023" flood-opacity="1"></feFlood><feComposite in2="afterOffset" operator="in"></feComposite><feMorphology operator="dilate" radius="2"></feMorphology><feComposite in2="SourceAlpha" operator="out"></feComposite></filter><path d="M45 16.49C41.23 9.79 34.14 5.64 26.45 5.64C14.68 5.64 5.15 16.55 5.15 28.31C5.15 57.86 45 78.47 45 78.47C45 78.47 84.85 57.86 84.85 28.31C84.85 16.55 75.32 5.64 63.55 5.64C55.86 5.64 48.77 9.79 45 16.49Z" id="gE30Oj1Rl" fill="white" fill-opacity="1" filter="url(#shadow195962)"></path></g><use xlink:href="#b3JDfS2jdt" opacity="1" fill="#ff6243" fill-opacity="0"></use><g><use xlink:href="#b3JDfS2jdt" opacity="1" fill-opacity="0" stroke="#000000" stroke-width="1" stroke-opacity="0"></use></g></g></g></g></svg>